<svg xmlns="http://www.w3.org/2000/svg" xmlns:xlink="http://www.w3.org/1999/xlink" width="1097" zoomAndPan="magnify" viewBox="0 0 822.75 389.249997" height="519" preserveAspectRatio="xMidYMid meet" version="1.0"><defs><g/><clipPath id="7383021cdd"><rect x="0" width="322" y="0" height="244"/></clipPath></defs><path stroke-linecap="round" transform="matrix(0.00000000130648, 0.748558, -0.748558, 0.00000000130648, 417.291167, 116.099628)" fill="none" stroke-linejoin="miter" d="M 2.00122 2.001447 L 205.982042 2.001448 " stroke="#f5f5f5" stroke-width="4" stroke-opacity="1" stroke-miterlimit="4"/><g transform="matrix(1, 0, 0, 1, 92, 70)"><g clip-path="url(#7383021cdd)"><g fill="#f5f5f5" fill-opacity="1"><g transform="translate(0.647396, 182.493123)"><g><path d="M 98.203125 -121.578125 L 98.203125 -97.84375 L 65.984375 -97.84375 L 65.984375 0 L 36.375 0 L 36.375 -97.84375 L 4.15625 -97.84375 L 4.15625 -121.578125 Z M 98.203125 -121.578125 "/></g></g></g><g fill="#f5f5f5" fill-opacity="1"><g transform="translate(115.455453, 182.493123)"><g><path d="M 56.28125 -121.578125 C 69.101562 -121.578125 80.304688 -119.035156 89.890625 -113.953125 C 99.472656 -108.878906 106.890625 -101.75 112.140625 -92.5625 C 117.390625 -83.382812 120.015625 -72.789062 120.015625 -60.78125 C 120.015625 -48.894531 117.390625 -38.332031 112.140625 -29.09375 C 106.890625 -19.851562 99.441406 -12.691406 89.796875 -7.609375 C 80.160156 -2.535156 68.988281 0 56.28125 0 L 10.734375 0 L 10.734375 -121.578125 Z M 54.375 -25.625 C 65.582031 -25.625 74.300781 -28.679688 80.53125 -34.796875 C 86.769531 -40.921875 89.890625 -49.582031 89.890625 -60.78125 C 89.890625 -71.988281 86.769531 -80.707031 80.53125 -86.9375 C 74.300781 -93.175781 65.582031 -96.296875 54.375 -96.296875 L 40.359375 -96.296875 L 40.359375 -25.625 Z M 54.375 -25.625 "/></g></g></g><g fill="#f5f5f5" fill-opacity="1"><g transform="translate(253.812896, 182.493123)"><g><path d="M 40.359375 -121.578125 L 40.359375 0 L 10.734375 0 L 10.734375 -121.578125 Z M 40.359375 -121.578125 "/></g></g></g></g></g><g fill="#f5f5f5" fill-opacity="1"><g transform="translate(445.159358, 156.510045)"><g><path d="M 18.03125 -24.828125 L 18.03125 -22.1875 L 11.25 -22.1875 L 11.25 0 L 8.015625 0 L 8.015625 -22.1875 L 1.21875 -22.1875 L 1.21875 -24.828125 Z M 18.03125 -24.828125 "/></g></g></g><g fill="#f5f5f5" fill-opacity="1"><g transform="translate(473.234577, 156.510045)"><g><path d="M 21.875 -24.828125 L 21.875 0 L 18.625 0 L 18.625 -11.25 L 5.984375 -11.25 L 5.984375 0 L 2.75 0 L 2.75 -24.828125 L 5.984375 -24.828125 L 5.984375 -13.921875 L 18.625 -13.921875 L 18.625 -24.828125 Z M 21.875 -24.828125 "/></g></g></g><g fill="#f5f5f5" fill-opacity="1"><g transform="translate(506.689436, 156.510045)"><g><path d="M 5.984375 -22.1875 L 5.984375 -13.890625 L 15.03125 -13.890625 L 15.03125 -11.21875 L 5.984375 -11.21875 L 5.984375 -2.671875 L 16.109375 -2.671875 L 16.109375 0 L 2.75 0 L 2.75 -24.859375 L 16.109375 -24.859375 L 16.109375 -22.1875 Z M 5.984375 -22.1875 "/></g></g></g><g fill="#f5f5f5" fill-opacity="1"><g transform="translate(533.769871, 156.510045)"><g/></g></g><g fill="#f5f5f5" fill-opacity="1"><g transform="translate(445.159358, 205.91485)"><g><path d="M 10.46875 -24.828125 C 13.175781 -24.828125 15.519531 -24.320312 17.5 -23.3125 C 19.488281 -22.300781 21.007812 -20.859375 22.0625 -18.984375 C 23.125 -17.109375 23.65625 -14.898438 23.65625 -12.359375 C 23.65625 -9.816406 23.125 -7.613281 22.0625 -5.75 C 21.007812 -3.882812 19.488281 -2.457031 17.5 -1.46875 C 15.519531 -0.488281 13.175781 0 10.46875 0 L 2.75 0 L 2.75 -24.828125 Z M 10.46875 -2.671875 C 13.675781 -2.671875 16.125 -3.519531 17.8125 -5.21875 C 19.5 -6.914062 20.34375 -9.296875 20.34375 -12.359375 C 20.34375 -15.453125 19.492188 -17.863281 17.796875 -19.59375 C 16.097656 -21.320312 13.65625 -22.1875 10.46875 -22.1875 L 5.984375 -22.1875 L 5.984375 -2.671875 Z M 10.46875 -2.671875 "/></g></g></g><g fill="#f5f5f5" fill-opacity="1"><g transform="translate(479.148611, 205.91485)"><g><path d="M 17.421875 -5.515625 L 6.59375 -5.515625 L 4.59375 0 L 1.171875 0 L 10.15625 -24.6875 L 13.890625 -24.6875 L 22.828125 0 L 19.421875 0 Z M 16.5 -8.15625 L 12 -20.703125 L 7.515625 -8.15625 Z M 16.5 -8.15625 "/></g></g></g><g fill="#f5f5f5" fill-opacity="1"><g transform="translate(511.962189, 205.91485)"><g><path d="M 18.03125 -24.828125 L 18.03125 -22.1875 L 11.25 -22.1875 L 11.25 0 L 8.015625 0 L 8.015625 -22.1875 L 1.21875 -22.1875 L 1.21875 -24.828125 Z M 18.03125 -24.828125 "/></g></g></g><g fill="#f5f5f5" fill-opacity="1"><g transform="translate(540.037408, 205.91485)"><g><path d="M 17.421875 -5.515625 L 6.59375 -5.515625 L 4.59375 0 L 1.171875 0 L 10.15625 -24.6875 L 13.890625 -24.6875 L 22.828125 0 L 19.421875 0 Z M 16.5 -8.15625 L 12 -20.703125 L 7.515625 -8.15625 Z M 16.5 -8.15625 "/></g></g></g><g fill="#f5f5f5" fill-opacity="1"><g transform="translate(572.858616, 205.91485)"><g/></g></g><g fill="#f5f5f5" fill-opacity="1"><g transform="translate(445.159358, 255.319655)"><g><path d="M 5.984375 -24.828125 L 5.984375 0 L 2.75 0 L 2.75 -24.828125 Z M 5.984375 -24.828125 "/></g></g></g><g fill="#f5f5f5" fill-opacity="1"><g transform="translate(462.724695, 255.319655)"><g><path d="M 10.609375 0.25 C 8.972656 0.25 7.507812 -0.0390625 6.21875 -0.625 C 4.925781 -1.207031 3.910156 -2.015625 3.171875 -3.046875 C 2.429688 -4.078125 2.050781 -5.269531 2.03125 -6.625 L 5.484375 -6.625 C 5.609375 -5.457031 6.085938 -4.476562 6.921875 -3.6875 C 7.765625 -2.894531 8.992188 -2.5 10.609375 -2.5 C 12.160156 -2.5 13.378906 -2.882812 14.265625 -3.65625 C 15.160156 -4.425781 15.609375 -5.414062 15.609375 -6.625 C 15.609375 -7.570312 15.34375 -8.34375 14.8125 -8.9375 C 14.289062 -9.53125 13.640625 -9.984375 12.859375 -10.296875 C 12.078125 -10.609375 11.019531 -10.941406 9.6875 -11.296875 C 8.050781 -11.722656 6.738281 -12.148438 5.75 -12.578125 C 4.769531 -13.003906 3.925781 -13.671875 3.21875 -14.578125 C 2.519531 -15.492188 2.171875 -16.726562 2.171875 -18.28125 C 2.171875 -19.632812 2.515625 -20.832031 3.203125 -21.875 C 3.890625 -22.914062 4.859375 -23.722656 6.109375 -24.296875 C 7.359375 -24.867188 8.789062 -25.15625 10.40625 -25.15625 C 12.726562 -25.15625 14.628906 -24.570312 16.109375 -23.40625 C 17.597656 -22.238281 18.4375 -20.695312 18.625 -18.78125 L 15.0625 -18.78125 C 14.945312 -19.726562 14.445312 -20.5625 13.5625 -21.28125 C 12.6875 -22.007812 11.523438 -22.375 10.078125 -22.375 C 8.722656 -22.375 7.617188 -22.019531 6.765625 -21.3125 C 5.910156 -20.613281 5.484375 -19.632812 5.484375 -18.375 C 5.484375 -17.476562 5.738281 -16.742188 6.25 -16.171875 C 6.757812 -15.597656 7.390625 -15.160156 8.140625 -14.859375 C 8.890625 -14.566406 9.941406 -14.234375 11.296875 -13.859375 C 12.929688 -13.410156 14.25 -12.960938 15.25 -12.515625 C 16.25 -12.078125 17.101562 -11.398438 17.8125 -10.484375 C 18.519531 -9.578125 18.875 -8.335938 18.875 -6.765625 C 18.875 -5.554688 18.550781 -4.414062 17.90625 -3.34375 C 17.269531 -2.28125 16.320312 -1.414062 15.0625 -0.75 C 13.8125 -0.0820312 12.328125 0.25 10.609375 0.25 Z M 10.609375 0.25 "/></g></g></g><g fill="#f5f5f5" fill-opacity="1"><g transform="translate(492.438742, 255.319655)"><g><path d="M 5.984375 -2.640625 L 14.671875 -2.640625 L 14.671875 0 L 2.75 0 L 2.75 -24.828125 L 5.984375 -24.828125 Z M 5.984375 -2.640625 "/></g></g></g><g fill="#f5f5f5" fill-opacity="1"><g transform="translate(516.630646, 255.319655)"><g><path d="M 17.421875 -5.515625 L 6.59375 -5.515625 L 4.59375 0 L 1.171875 0 L 10.15625 -24.6875 L 13.890625 -24.6875 L 22.828125 0 L 19.421875 0 Z M 16.5 -8.15625 L 12 -20.703125 L 7.515625 -8.15625 Z M 16.5 -8.15625 "/></g></g></g><g fill="#f5f5f5" fill-opacity="1"><g transform="translate(549.444224, 255.319655)"><g><path d="M 22.265625 0 L 19.03125 0 L 5.984375 -19.765625 L 5.984375 0 L 2.75 0 L 2.75 -24.859375 L 5.984375 -24.859375 L 19.03125 -5.125 L 19.03125 -24.859375 L 22.265625 -24.859375 Z M 22.265625 0 "/></g></g></g><g fill="#f5f5f5" fill-opacity="1"><g transform="translate(583.290975, 255.319655)"><g><path d="M 10.46875 -24.828125 C 13.175781 -24.828125 15.519531 -24.320312 17.5 -23.3125 C 19.488281 -22.300781 21.007812 -20.859375 22.0625 -18.984375 C 23.125 -17.109375 23.65625 -14.898438 23.65625 -12.359375 C 23.65625 -9.816406 23.125 -7.613281 22.0625 -5.75 C 21.007812 -3.882812 19.488281 -2.457031 17.5 -1.46875 C 15.519531 -0.488281 13.175781 0 10.46875 0 L 2.75 0 L 2.75 -24.828125 Z M 10.46875 -2.671875 C 13.675781 -2.671875 16.125 -3.519531 17.8125 -5.21875 C 19.5 -6.914062 20.34375 -9.296875 20.34375 -12.359375 C 20.34375 -15.453125 19.492188 -17.863281 17.796875 -19.59375 C 16.097656 -21.320312 13.65625 -22.1875 10.46875 -22.1875 L 5.984375 -22.1875 L 5.984375 -2.671875 Z M 10.46875 -2.671875 "/></g></g></g></svg>