<?xml version="1.0" encoding="UTF-8" standalone="no"?>
<!-- Created with Inkscape (http://www.inkscape.org/) -->

<svg
   version="1.1"
   id="svg1"
   width="256"
   height="256"
   viewBox="0 0 256 256"
   sodipodi:docname="144e9679-ac36-4819-8beb-dfe89917fcec.ai"
   xmlns:inkscape="http://www.inkscape.org/namespaces/inkscape"
   xmlns:sodipodi="http://sodipodi.sourceforge.net/DTD/sodipodi-0.dtd"
   xmlns="http://www.w3.org/2000/svg"
   xmlns:svg="http://www.w3.org/2000/svg">
  <defs
     id="defs1">
    <clipPath
       clipPathUnits="userSpaceOnUse"
       id="clipPath2">
      <path
         d="M 0,192 H 192 V 0 H 0 Z"
         transform="translate(-48.349901,-105.6832)"
         id="path2" />
    </clipPath>
    <clipPath
       clipPathUnits="userSpaceOnUse"
       id="clipPath4">
      <path
         d="M 0,192 H 192 V 0 H 0 Z"
         transform="translate(-73.889302,-81.455305)"
         id="path4" />
    </clipPath>
    <clipPath
       clipPathUnits="userSpaceOnUse"
       id="clipPath6">
      <path
         d="M 0,192 H 192 V 0 H 0 Z"
         transform="translate(-151.0251,-87.431905)"
         id="path6" />
    </clipPath>
    <clipPath
       clipPathUnits="userSpaceOnUse"
       id="clipPath8">
      <path
         d="M 0,192 H 192 V 0 H 0 Z"
         transform="translate(-88.145905,-102.1113)"
         id="path8" />
    </clipPath>
    <clipPath
       clipPathUnits="userSpaceOnUse"
       id="clipPath10">
      <path
         d="M 0,192 H 192 V 0 H 0 Z"
         transform="translate(-137.93811,-86.244902)"
         id="path10" />
    </clipPath>
    <clipPath
       clipPathUnits="userSpaceOnUse"
       id="clipPath12">
      <path
         d="M 0,192 H 192 V 0 H 0 Z"
         transform="translate(-121.96551,-97.424702)"
         id="path12" />
    </clipPath>
    <clipPath
       clipPathUnits="userSpaceOnUse"
       id="clipPath14">
      <path
         d="M 0,192 H 192 V 0 H 0 Z"
         transform="translate(-90.479605,-85.783802)"
         id="path14" />
    </clipPath>
    <clipPath
       clipPathUnits="userSpaceOnUse"
       id="clipPath16">
      <path
         d="M 0,192 H 192 V 0 H 0 Z"
         transform="translate(-168.87891,-81.7258)"
         id="path16" />
    </clipPath>
    <clipPath
       clipPathUnits="userSpaceOnUse"
       id="clipPath18">
      <path
         d="M 0,192 H 192 V 0 H 0 Z"
         transform="translate(-98.291702,-100.212)"
         id="path18" />
    </clipPath>
    <clipPath
       clipPathUnits="userSpaceOnUse"
       id="clipPath20">
      <path
         d="M 0,192 H 192 V 0 H 0 Z"
         transform="translate(-119.42661,-81.685105)"
         id="path20" />
    </clipPath>
    <clipPath
       clipPathUnits="userSpaceOnUse"
       id="clipPath22">
      <path
         d="M 0,192 H 192 V 0 H 0 Z"
         transform="translate(-69.593201,-97.4887)"
         id="path22" />
    </clipPath>
    <clipPath
       clipPathUnits="userSpaceOnUse"
       id="clipPath24">
      <path
         d="M 0,192 H 192 V 0 H 0 Z"
         transform="translate(-104.0662,-81.495205)"
         id="path24" />
    </clipPath>
    <clipPath
       clipPathUnits="userSpaceOnUse"
       id="clipPath26">
      <path
         d="M 0,192 H 192 V 0 H 0 Z"
         transform="translate(-23.4517,-76.626204)"
         id="path26" />
    </clipPath>
    <clipPath
       clipPathUnits="userSpaceOnUse"
       id="clipPath28">
      <path
         d="M 0,192 H 192 V 0 H 0 Z"
         transform="translate(-30.956601,-76.081299)"
         id="path28" />
    </clipPath>
    <clipPath
       clipPathUnits="userSpaceOnUse"
       id="clipPath30">
      <path
         d="M 0,192 H 192 V 0 H 0 Z"
         transform="translate(-40.755401,-77.967002)"
         id="path30" />
    </clipPath>
    <clipPath
       clipPathUnits="userSpaceOnUse"
       id="clipPath32">
      <path
         d="M 0,192 H 192 V 0 H 0 Z"
         transform="translate(-47.112801,-74.783402)"
         id="path32" />
    </clipPath>
    <clipPath
       clipPathUnits="userSpaceOnUse"
       id="clipPath34">
      <path
         d="M 0,192 H 192 V 0 H 0 Z"
         transform="translate(-52.370701,-77.374299)"
         id="path34" />
    </clipPath>
    <clipPath
       clipPathUnits="userSpaceOnUse"
       id="clipPath36">
      <path
         d="M 0,192 H 192 V 0 H 0 Z"
         id="path36" />
    </clipPath>
    <clipPath
       clipPathUnits="userSpaceOnUse"
       id="clipPath38">
      <path
         d="M 0,192 H 192 V 0 H 0 Z"
         transform="translate(-65.774002,-77.967002)"
         id="path38" />
    </clipPath>
    <clipPath
       clipPathUnits="userSpaceOnUse"
       id="clipPath40">
      <path
         d="M 0,192 H 192 V 0 H 0 Z"
         transform="translate(-72.319902,-76.125204)"
         id="path40" />
    </clipPath>
    <clipPath
       clipPathUnits="userSpaceOnUse"
       id="clipPath42">
      <path
         d="M 0,192 H 192 V 0 H 0 Z"
         transform="translate(-80.988805,-74.595002)"
         id="path42" />
    </clipPath>
    <clipPath
       clipPathUnits="userSpaceOnUse"
       id="clipPath44">
      <path
         d="M 0,192 H 192 V 0 H 0 Z"
         transform="translate(-89.1988,-75.526599)"
         id="path44" />
    </clipPath>
    <clipPath
       clipPathUnits="userSpaceOnUse"
       id="clipPath46">
      <path
         d="M 0,192 H 192 V 0 H 0 Z"
         transform="translate(-93.6919,-74.595002)"
         id="path46" />
    </clipPath>
    <clipPath
       clipPathUnits="userSpaceOnUse"
       id="clipPath48">
      <path
         d="M 0,192 H 192 V 0 H 0 Z"
         transform="translate(-101.06691,-77.374299)"
         id="path48" />
    </clipPath>
    <clipPath
       clipPathUnits="userSpaceOnUse"
       id="clipPath50">
      <path
         d="M 0,192 H 192 V 0 H 0 Z"
         transform="translate(-109.3306,-74.783402)"
         id="path50" />
    </clipPath>
    <clipPath
       clipPathUnits="userSpaceOnUse"
       id="clipPath52">
      <path
         d="M 0,192 H 192 V 0 H 0 Z"
         transform="translate(-116.53371,-74.196504)"
         id="path52" />
    </clipPath>
    <clipPath
       clipPathUnits="userSpaceOnUse"
       id="clipPath54">
      <path
         d="M 0,192 H 192 V 0 H 0 Z"
         transform="translate(-120.855,-74.595002)"
         id="path54" />
    </clipPath>
    <clipPath
       clipPathUnits="userSpaceOnUse"
       id="clipPath56">
      <path
         d="M 0,192 H 192 V 0 H 0 Z"
         transform="translate(-131.69391,-76.081299)"
         id="path56" />
    </clipPath>
    <clipPath
       clipPathUnits="userSpaceOnUse"
       id="clipPath58">
      <path
         d="M 0,192 H 192 V 0 H 0 Z"
         transform="translate(-142.1871,-77.967002)"
         id="path58" />
    </clipPath>
    <clipPath
       clipPathUnits="userSpaceOnUse"
       id="clipPath60">
      <path
         d="M 0,192 H 192 V 0 H 0 Z"
         transform="translate(-148.3716,-75.618399)"
         id="path60" />
    </clipPath>
    <clipPath
       clipPathUnits="userSpaceOnUse"
       id="clipPath62">
      <path
         d="M 0,192 H 192 V 0 H 0 Z"
         transform="translate(-156.50151,-77.967002)"
         id="path62" />
    </clipPath>
    <clipPath
       clipPathUnits="userSpaceOnUse"
       id="clipPath64">
      <path
         d="M 0,192 H 192 V 0 H 0 Z"
         transform="translate(-163.0474,-76.125204)"
         id="path64" />
    </clipPath>
    <clipPath
       clipPathUnits="userSpaceOnUse"
       id="clipPath66">
      <path
         d="M 0,192 H 192 V 0 H 0 Z"
         transform="translate(-170.4165,-74.783402)"
         id="path66" />
    </clipPath>
  </defs>
  <sodipodi:namedview
     id="namedview1"
     pagecolor="#ffffff"
     bordercolor="#000000"
     borderopacity="0.25"
     inkscape:showpageshadow="2"
     inkscape:pageopacity="0.0"
     inkscape:pagecheckerboard="0"
     inkscape:deskcolor="#d1d1d1">
    <inkscape:page
       x="0"
       y="0"
       inkscape:label="1"
       id="page1"
       width="256"
       height="256"
       margin="98.857063 28.001333 98.85733 28.000668"
       bleed="0" />
  </sodipodi:namedview>
  <g
     id="layer-MC0"
     inkscape:groupmode="layer"
     inkscape:label="Layer 1">
    <path
       id="path1"
       d="m 0,0 0.098,-2.932 -7.567,-0.059 0.006,-9.073 c 2.789,0.592 4.376,3.073 4.565,5.787 l 2.84,-0.079 -0.019,-11.697 -2.857,0.052 -0.087,4.821 c -1.717,-1.088 -2.843,-1.621 -4.456,-2.066 l 0.025,-5.753 13.538,0.003 0.005,29.9 -30.022,0.018 0.014,-29.93 13.53,0.024 0.05,5.718 c -1.704,0.515 -2.997,1.149 -4.518,2.139 l -0.034,-4.956 -2.834,0.061 0.007,11.693 2.829,0.002 c 0.302,-2.716 1.566,-4.998 4.504,-5.759 l 0.051,9.103 -7.553,0.027 0.013,2.949 z m 9.408,-24.265 -36.625,-0.004 -0.016,36.443 H 9.405 Z"
       style="fill:#727272;fill-opacity:1;fill-rule:nonzero;stroke:none"
       transform="matrix(1.3333333,0,0,-1.3333333,64.466533,115.08907)"
       clip-path="url(#clipPath2)" />
    <path
       id="path3"
       d="M 0,0 -0.107,8.127 -4.049,3.197 -7.883,8.121 -7.969,0.17 c -0.595,-0.227 -1.392,-0.219 -2.216,-0.061 l -0.016,11.414 2.658,-0.006 3.545,-4.875 3.558,4.883 2.596,0.028 0.011,-11.469 z"
       style="fill:#727272;fill-opacity:1;fill-rule:nonzero;stroke:none"
       transform="matrix(1.3333333,0,0,-1.3333333,98.519067,147.39293)"
       clip-path="url(#clipPath4)" />
    <path
       id="path5"
       d="M 0,0 C 1.109,0.095 1.473,1.368 1.345,2.03 1.148,3.044 0.355,3.596 -0.671,3.574 L -3.994,3.501 -3.966,-0.077 C -2.58,-0.104 -1.394,-0.119 0,0 M 1.575,-6.007 -1.711,-2.222 -3.972,-2.195 -4.017,-5.984 -6.133,-5.99 -6.144,5.628 C -3.767,5.678 -1.571,5.766 0.714,5.493 2.274,5.308 3.211,3.835 3.528,2.555 3.857,1.221 3.381,-0.402 2.129,-1.24 L 0.807,-1.916 4.23,-5.881 Z"
       style="fill:#727272;fill-opacity:1;fill-rule:nonzero;stroke:none"
       transform="matrix(1.3333333,0,0,-1.3333333,201.3668,139.42413)"
       clip-path="url(#clipPath6)" />
    <path
       id="path7"
       d="M 0,0 -6.239,-0.051 -6.234,-2.513 0.315,-2.55 0.305,-4.742 -8.411,-4.752 -8.421,7.001 0.299,7.01 0.317,4.871 -6.192,4.84 -6.255,2.209 -0.044,2.195 Z"
       style="fill:#727272;fill-opacity:1;fill-rule:nonzero;stroke:none"
       transform="matrix(1.3333333,0,0,-1.3333333,117.52787,119.8516)"
       clip-path="url(#clipPath8)" />
    <path
       id="path9"
       d="m 0,0 -6.263,-0.025 c -0.145,-0.838 -0.115,-1.742 0.099,-2.633 L 0.194,-2.675 0.192,-4.81 -8.537,-4.809 -8.516,6.872 0.115,6.839 C 0.185,6.133 0.207,5.479 0.202,4.736 L -6.351,4.7 -6.322,2.061 -0.051,2.034 Z"
       style="fill:#727272;fill-opacity:1;fill-rule:nonzero;stroke:none"
       transform="matrix(1.3333333,0,0,-1.3333333,183.91747,141.0068)"
       clip-path="url(#clipPath10)" />
    <path
       id="path11"
       d="m 0,0 -2.245,-0.055 -0.028,4.673 -5.661,0.026 -0.073,-4.642 -2.162,-0.026 -0.004,11.561 c 0.692,0.105 1.534,0.114 2.179,0.048 l 0.043,-4.866 5.651,-0.026 0.067,4.944 2.242,-0.01 z"
       style="fill:#727272;fill-opacity:1;fill-rule:nonzero;stroke:none"
       transform="matrix(1.3333333,0,0,-1.3333333,162.62067,126.1004)"
       clip-path="url(#clipPath12)" />
    <path
       id="path13"
       d="M 0,0 -2.065,4.707 C -2.898,3.041 -3.451,1.74 -4.188,-0.08 Z m 1.098,-2.226 -6.116,0.056 -1.065,-1.879 c -0.298,-0.526 -1.719,-0.34 -2.383,-0.121 l 5.048,11.29 c 0.807,0.298 1.78,0.271 2.634,0.041 L 4.256,-4.125 C 3.447,-4.397 2.626,-4.401 1.843,-4.243 Z"
       style="fill:#727272;fill-opacity:1;fill-rule:nonzero;stroke:none"
       transform="matrix(1.3333333,0,0,-1.3333333,120.63947,141.6216)"
       clip-path="url(#clipPath14)" />
    <path
       id="path15"
       d="m 0,0 c -2.494,-1.074 -6.71,-0.826 -7.868,2.284 l 1.777,0.941 c 0.945,-1.545 2.603,-2.01 4.377,-1.672 0.907,0.174 1.541,0.682 1.549,1.573 0.03,2.972 -7.859,0.25 -7.158,5.861 0.091,0.735 0.807,1.697 1.718,2.129 2.144,1.018 6.046,0.922 7.234,-1.522 C 1.296,9.107 0.435,8.679 -0.13,8.722 -1.518,10.195 -4.383,10.175 -5.07,8.769 -5.223,8.456 -4.979,7.431 -4.606,7.345 L -0.592,6.422 C 1.033,6.049 1.976,4.948 2.103,3.562 2.242,2.037 1.565,0.674 0,0"
       style="fill:#727272;fill-opacity:1;fill-rule:nonzero;stroke:none"
       transform="matrix(1.3333333,0,0,-1.3333333,225.17187,147.03227)"
       clip-path="url(#clipPath16)" />
    <path
       id="path17"
       d="M 0,0 C 1.656,-1.533 4.044,-1.147 5.657,0.109 6.226,-0.342 6.661,-0.764 7.168,-1.388 4.729,-3.639 0.712,-3.814 -1.757,-1.391 -4.08,0.887 -4.021,5.024 -1.756,7.322 0.615,9.727 4.458,9.642 6.952,7.427 6.604,6.826 6.099,6.34 5.518,5.903 3.743,7.196 1.392,7.432 -0.192,5.75 -1.586,4.27 -1.603,1.484 0,0"
       style="fill:#727272;fill-opacity:1;fill-rule:nonzero;stroke:none"
       transform="matrix(1.3333333,0,0,-1.3333333,131.0556,122.384)"
       clip-path="url(#clipPath18)" />
    <path
       id="path19"
       d="M 0,0 C -0.605,-0.323 -1.454,-0.297 -2.269,-0.124 L -2.3,9.341 -5.801,9.414 -5.907,11.34 3.481,11.351 C 3.577,10.858 3.604,10.147 3.589,9.447 L 0.009,9.304 Z"
       style="fill:#727272;fill-opacity:1;fill-rule:nonzero;stroke:none"
       transform="matrix(1.3333333,0,0,-1.3333333,159.23547,147.08653)"
       clip-path="url(#clipPath20)" />
    <path
       id="path21"
       d="m 0,0 c -0.633,-0.143 -1.427,-0.133 -2.143,-0.009 l -0.011,9.516 -3.652,0.064 -0.088,2.05 9.629,0.007 L 3.689,9.59 0.005,9.53 Z"
       style="fill:#727272;fill-opacity:1;fill-rule:nonzero;stroke:none"
       transform="matrix(1.3333333,0,0,-1.3333333,92.790933,126.01507)"
       clip-path="url(#clipPath22)" />
    <path
       id="path23"
       d="m 0,0 -2.128,0.03 -0.046,9.529 -3.492,0.034 -0.085,1.939 9.39,0.008 c 0.077,-0.522 0.1,-1.201 0.095,-1.91 L 0.033,9.531 Z"
       style="fill:#727272;fill-opacity:1;fill-rule:nonzero;stroke:none"
       transform="matrix(1.3333333,0,0,-1.3333333,138.75493,147.33973)"
       clip-path="url(#clipPath24)" />
    <path
       id="path25"
       d="m 0,0 c 0,0.474 -0.317,0.748 -0.932,0.748 h -0.819 v -1.497 h 0.819 C -0.317,-0.749 0,-0.475 0,0 m 0.706,0 c 0,-0.83 -0.614,-1.342 -1.605,-1.342 H -1.751 V -2.43 h -0.7 v 3.771 h 1.552 C 0.092,1.341 0.706,0.834 0.706,0"
       style="fill:#757575;fill-opacity:1;fill-rule:nonzero;stroke:none"
       transform="matrix(1.3333333,0,0,-1.3333333,31.268933,153.83173)"
       clip-path="url(#clipPath26)" />
    <path
       id="path27"
       d="M 0,0 C 0,0.771 -0.565,1.325 -1.325,1.325 -2.085,1.325 -2.65,0.771 -2.65,0 c 0,-0.77 0.565,-1.324 1.325,-1.324 C -0.565,-1.324 0,-0.77 0,0 m -3.355,0 c 0,1.115 0.861,1.939 2.03,1.939 1.169,0 2.03,-0.818 2.03,-1.939 0,-1.12 -0.861,-1.938 -2.03,-1.938 -1.169,0 -2.03,0.824 -2.03,1.938"
       style="fill:#757575;fill-opacity:1;fill-rule:nonzero;stroke:none"
       transform="matrix(1.3333333,0,0,-1.3333333,41.275467,154.55827)"
       clip-path="url(#clipPath28)" />
    <path
       id="path29"
       d="M 0,0 -1.25,-3.771 H -1.993 L -2.925,-0.98 -3.873,-3.771 H -4.621 L -5.871,0 h 0.727 L -4.207,-2.865 -3.231,0 h 0.645 L -1.632,-2.882 -0.668,0 Z"
       style="fill:#757575;fill-opacity:1;fill-rule:nonzero;stroke:none"
       transform="matrix(1.3333333,0,0,-1.3333333,54.340533,152.044)"
       clip-path="url(#clipPath30)" />
    <path
       id="path31"
       d="m 0,0 v -0.587 h -2.828 v 3.771 h 2.753 V 2.597 H -2.127 V 1.616 h 1.82 V 1.04 h -1.82 V 0 Z"
       style="fill:#757575;fill-opacity:1;fill-rule:nonzero;stroke:none"
       transform="matrix(1.3333333,0,0,-1.3333333,62.817067,156.2888)"
       clip-path="url(#clipPath32)" />
    <path
       id="path33"
       d="M 0,0 H -0.818 V -1.503 H 0 c 0.614,0 0.932,0.28 0.932,0.755 C 0.932,-0.274 0.614,0 0,0 m 0.948,-3.178 -0.77,1.105 C 0.129,-2.079 0.081,-2.079 0.032,-2.079 h -0.85 V -3.178 H -1.52 v 3.771 h 1.552 c 0.991,0 1.606,-0.507 1.606,-1.341 0,-0.571 -0.291,-0.991 -0.803,-1.19 l 0.867,-1.24 z"
       style="fill:#757575;fill-opacity:1;fill-rule:nonzero;stroke:none"
       transform="matrix(1.3333333,0,0,-1.3333333,69.8276,152.83427)"
       clip-path="url(#clipPath34)" />
    <path
       id="path35"
       d="m 57.748,77.967 h 0.701 v -3.771 h -0.701 z"
       style="fill:#757575;fill-opacity:1;fill-rule:nonzero;stroke:none"
       transform="matrix(1.3333333,0,0,-1.3333333,0,256)"
       clip-path="url(#clipPath36)" />
    <path
       id="path37"
       d="m 0,0 v -3.771 h -0.576 l -2.079,2.553 V -3.771 H -3.351 V 0 h 0.578 l 2.079,-2.553 V 0 Z"
       style="fill:#757575;fill-opacity:1;fill-rule:nonzero;stroke:none"
       transform="matrix(1.3333333,0,0,-1.3333333,87.698667,152.044)"
       clip-path="url(#clipPath38)" />
    <path
       id="path39"
       d="M 0,0 H 0.662 V -1.503 C 0.27,-1.821 -0.28,-1.982 -0.813,-1.982 c -1.169,0 -2.031,0.813 -2.031,1.938 0,1.126 0.862,1.94 2.041,1.94 0.63,0 1.158,-0.21 1.514,-0.615 L 0.27,0.851 c -0.297,0.295 -0.636,0.43 -1.041,0.43 -0.802,0 -1.368,-0.544 -1.368,-1.325 0,-0.765 0.566,-1.324 1.364,-1.324 0.268,0 0.533,0.054 0.775,0.193 z"
       style="fill:#757575;fill-opacity:1;fill-rule:nonzero;stroke:none"
       transform="matrix(1.3333333,0,0,-1.3333333,96.426533,154.49973)"
       clip-path="url(#clipPath40)" />
    <path
       id="path41"
       d="M 0,0 0.242,0.544 C 0.544,0.302 1.023,0.13 1.486,0.13 c 0.588,0 0.835,0.21 0.835,0.489 0,0.814 -2.24,0.28 -2.24,1.681 0,0.609 0.484,1.126 1.519,1.126 0.452,0 0.926,-0.118 1.254,-0.334 L 2.634,2.548 C 2.295,2.747 1.923,2.844 1.595,2.844 c -0.582,0 -0.82,-0.226 -0.82,-0.512 0,-0.802 2.236,-0.279 2.236,-1.664 0,-0.604 -0.49,-1.12 -1.525,-1.12 C 0.899,-0.452 0.312,-0.27 0,0"
       style="fill:#757575;fill-opacity:1;fill-rule:nonzero;stroke:none"
       transform="matrix(1.3333333,0,0,-1.3333333,107.98507,156.54)"
       clip-path="url(#clipPath42)" />
    <path
       id="path43"
       d="m 0,0 v -1.33 h -0.7 v 1.319 L -2.182,2.44 h 0.749 L -0.328,0.604 0.786,2.44 h 0.69 z"
       style="fill:#757575;fill-opacity:1;fill-rule:nonzero;stroke:none"
       transform="matrix(1.3333333,0,0,-1.3333333,118.93173,155.29787)"
       clip-path="url(#clipPath44)" />
    <path
       id="path45"
       d="M 0,0 0.242,0.544 C 0.544,0.302 1.023,0.13 1.486,0.13 c 0.588,0 0.835,0.21 0.835,0.489 0,0.814 -2.24,0.28 -2.24,1.681 0,0.609 0.484,1.126 1.519,1.126 0.452,0 0.926,-0.118 1.254,-0.334 L 2.634,2.548 C 2.295,2.747 1.923,2.844 1.595,2.844 c -0.582,0 -0.82,-0.226 -0.82,-0.512 0,-0.802 2.236,-0.279 2.236,-1.664 0,-0.604 -0.49,-1.12 -1.525,-1.12 C 0.899,-0.452 0.312,-0.27 0,0"
       style="fill:#757575;fill-opacity:1;fill-rule:nonzero;stroke:none"
       transform="matrix(1.3333333,0,0,-1.3333333,124.92253,156.54)"
       clip-path="url(#clipPath46)" />
    <path
       id="path47"
       d="M 0,0 H -1.25 V 0.593 H 1.949 L 1.949,0 H 0.7 V -3.178 H 0 Z"
       style="fill:#757575;fill-opacity:1;fill-rule:nonzero;stroke:none"
       transform="matrix(1.3333333,0,0,-1.3333333,134.75587,152.83427)"
       clip-path="url(#clipPath48)" />
    <path
       id="path49"
       d="m 0,0 v -0.587 h -2.828 v 3.771 h 2.753 V 2.597 H -2.128 V 1.616 h 1.821 V 1.04 H -2.128 V 0 Z"
       style="fill:#757575;fill-opacity:1;fill-rule:nonzero;stroke:none"
       transform="matrix(1.3333333,0,0,-1.3333333,145.77413,156.2888)"
       clip-path="url(#clipPath50)" />
    <path
       id="path51"
       d="M 0,0 -0.005,2.499 -1.244,0.431 H -1.557 L -2.796,2.467 V 0 h -0.668 v 3.771 h 0.577 l 1.497,-2.5 1.471,2.5 H 0.657 L 0.662,0 Z"
       style="fill:#757575;fill-opacity:1;fill-rule:nonzero;stroke:none"
       transform="matrix(1.3333333,0,0,-1.3333333,155.37827,157.07133)"
       clip-path="url(#clipPath52)" />
    <path
       id="path53"
       d="M 0,0 0.242,0.544 C 0.544,0.302 1.023,0.13 1.486,0.13 c 0.588,0 0.835,0.21 0.835,0.489 0,0.814 -2.24,0.28 -2.24,1.681 0,0.609 0.484,1.126 1.519,1.126 0.453,0 0.926,-0.118 1.254,-0.334 L 2.634,2.548 C 2.295,2.747 1.923,2.844 1.595,2.844 c -0.582,0 -0.82,-0.226 -0.82,-0.512 0,-0.802 2.236,-0.279 2.236,-1.664 0,-0.604 -0.49,-1.12 -1.525,-1.12 C 0.899,-0.452 0.312,-0.27 0,0"
       style="fill:#757575;fill-opacity:1;fill-rule:nonzero;stroke:none"
       transform="matrix(1.3333333,0,0,-1.3333333,161.14,156.54)"
       clip-path="url(#clipPath54)" />
    <path
       id="path55"
       d="m 0,0 c 0,1.126 0.861,1.939 2.02,1.939 0.614,0 1.141,-0.22 1.492,-0.629 L 3.06,0.884 C 2.784,1.18 2.445,1.325 2.052,1.325 1.271,1.325 0.705,0.776 0.705,0 c 0,-0.775 0.566,-1.324 1.347,-1.324 0.393,0 0.732,0.145 1.008,0.446 L 3.512,-1.309 C 3.161,-1.718 2.634,-1.938 2.015,-1.938 0.861,-1.938 0,-1.125 0,0"
       style="fill:#757575;fill-opacity:1;fill-rule:nonzero;stroke:none"
       transform="matrix(1.3333333,0,0,-1.3333333,175.59187,154.55827)"
       clip-path="url(#clipPath56)" />
    <path
       id="path57"
       d="m 0,0 v -3.771 h -0.7 v 1.617 H -2.65 V -3.771 H -3.351 V 0 H -2.65 V -1.557 H -0.7 V 0 Z"
       style="fill:#757575;fill-opacity:1;fill-rule:nonzero;stroke:none"
       transform="matrix(1.3333333,0,0,-1.3333333,189.5828,152.044)"
       clip-path="url(#clipPath58)" />
    <path
       id="path59"
       d="M 0,0 -0.711,1.648 -1.416,0 Z m 0.232,-0.549 h -1.885 l -0.371,-0.873 h -0.723 l 1.697,3.771 h 0.69 L 1.342,-1.422 H 0.609 Z"
       style="fill:#757575;fill-opacity:1;fill-rule:nonzero;stroke:none"
       transform="matrix(1.3333333,0,0,-1.3333333,197.8288,155.17547)"
       clip-path="url(#clipPath60)" />
    <path
       id="path61"
       d="m 0,0 v -3.771 h -0.576 l -2.079,2.553 V -3.771 H -3.351 V 0 h 0.578 l 2.079,-2.553 V 0 Z"
       style="fill:#757575;fill-opacity:1;fill-rule:nonzero;stroke:none"
       transform="matrix(1.3333333,0,0,-1.3333333,208.66867,152.044)"
       clip-path="url(#clipPath62)" />
    <path
       id="path63"
       d="M 0,0 H 0.662 V -1.503 C 0.27,-1.821 -0.28,-1.982 -0.813,-1.982 c -1.169,0 -2.031,0.813 -2.031,1.938 0,1.126 0.862,1.94 2.041,1.94 0.63,0 1.158,-0.21 1.514,-0.615 L 0.27,0.851 c -0.297,0.295 -0.636,0.43 -1.041,0.43 -0.802,0 -1.368,-0.544 -1.368,-1.325 0,-0.765 0.566,-1.324 1.364,-1.324 0.268,0 0.533,0.054 0.775,0.193 z"
       style="fill:#757575;fill-opacity:1;fill-rule:nonzero;stroke:none"
       transform="matrix(1.3333333,0,0,-1.3333333,217.39653,154.49973)"
       clip-path="url(#clipPath64)" />
    <path
       id="path65"
       d="m 0,0 v -0.587 h -2.828 v 3.771 h 2.753 V 2.597 H -2.128 V 1.616 h 1.821 V 1.04 H -2.128 V 0 Z"
       style="fill:#757575;fill-opacity:1;fill-rule:nonzero;stroke:none"
       transform="matrix(1.3333333,0,0,-1.3333333,227.222,156.2888)"
       clip-path="url(#clipPath66)" />
  </g>
</svg>
